<svg width="43" height="30" viewBox="0 0 43 30" fill="none" xmlns="http://www.w3.org/2000/svg">
<path d="M2.2926 0.358438C2.82594 0.133438 3.3926 -0.00822881 3.9676 0.000104524C15.6343 0.000104524 27.3009 0.000104524 38.9676 0.000104524C39.5426 -0.00822881 40.1176 0.133438 40.6426 0.366771C37.8009 3.23344 34.9176 6.06677 32.0593 8.9251C29.6343 11.3334 27.2093 13.7501 24.7926 16.1584C24.4926 16.4418 24.2176 16.7584 23.8926 17.0168C22.9343 17.8668 21.5176 18.1418 20.3009 17.7334C19.6926 17.5501 19.1676 17.1751 18.7176 16.7418C13.3593 11.4084 8.00094 6.0751 2.63427 0.741771C2.5176 0.616771 2.3926 0.500105 2.2926 0.358438Z" fill="#B756FE"/>
<path d="M0.500944 2.15015C4.82594 6.42515 9.13428 10.7168 13.4509 15.0001C9.13428 19.2835 4.82594 23.5751 0.500944 27.8501C0.300944 27.3918 0.167611 26.9001 0.134277 26.3918V3.60848C0.167611 3.10015 0.300944 2.60848 0.500944 2.15015Z" fill="#F6F6F7"/>
<path d="M29.4843 15.0001C33.8009 10.7168 38.1009 6.41681 42.4343 2.15015C42.6343 2.60848 42.7759 3.10015 42.8009 3.60848V26.4001C42.7676 26.9001 42.6343 27.4001 42.4343 27.8585C38.1093 23.5751 33.8009 19.2835 29.4843 15.0001Z" fill="#F6F6F7"/>
<path d="M5.27594 26.6418C8.5926 23.3502 11.9009 20.0585 15.2176 16.7668C15.8593 17.4002 16.4843 18.0418 17.1259 18.6668C18.0593 19.5752 19.2843 20.1752 20.5676 20.3585C22.3926 20.6335 24.3259 20.0502 25.6759 18.7918C26.3759 18.1335 27.0343 17.4418 27.7176 16.7668C30.3759 19.4085 33.0343 22.0502 35.6926 24.6918C37.3426 26.3418 39.0176 27.9668 40.6509 29.6335C40.1259 29.8668 39.5509 30.0085 38.9759 30.0002C27.3093 30.0002 15.6426 30.0002 3.97594 30.0002C3.3926 30.0085 2.82594 29.8668 2.2926 29.6335C3.25927 28.6168 4.28427 27.6418 5.27594 26.6418Z" fill="#F6F6F7"/>
</svg>
