<svg width="33" height="30" viewBox="0 0 33 30" fill="none" xmlns="http://www.w3.org/2000/svg">
<g clip-path="url(#clip0_222_37)">
<path d="M10.4301 5.41219C11.0691 5.42722 11.6479 4.85594 11.6328 4.217C11.6328 3.18718 11.6404 2.14985 11.6328 1.12003C11.6028 0.435993 10.9037 -0.120259 10.2272 0.0150455C9.67093 0.0977316 9.21992 0.623915 9.23495 1.1952C9.23495 2.20247 9.23495 3.20973 9.23495 4.20948C9.2124 4.85594 9.7912 5.42722 10.4301 5.41219Z" fill="#F6F6F7"/>
<path d="M22.4572 5.41219C23.0961 5.42722 23.6674 4.85594 23.6599 4.217C23.6599 3.18718 23.6674 2.14985 23.6599 1.12003C23.6373 0.435993 22.9307 -0.120259 22.2542 0.0150455C21.698 0.105248 21.247 0.631432 21.262 1.1952C21.262 2.20247 21.262 3.20973 21.262 4.20948C21.2394 4.85594 21.8182 5.42722 22.4572 5.41219Z" fill="#F6F6F7"/>
<path d="M32.0788 10.8245H0.808472C0.808472 14.7859 0.808472 19.0179 0.808472 23.0094V26.5874C0.808472 28.4667 2.33441 29.9926 4.21363 29.9926H7.61879C13.9405 29.9926 20.2698 29.9926 26.5915 29.9926C26.6516 29.9926 26.7118 29.9926 26.7794 29.9926H28.6812C30.5604 29.9926 32.0863 28.4667 32.0863 26.5874V23.0094H32.0788C32.0788 19.0179 32.0788 14.7934 32.0788 10.8245ZM22.0212 19.0179C21.9686 19.4464 21.6454 19.7621 21.2996 19.9801L19.5331 21.2504C19.7736 21.9946 20.0142 22.7313 20.2547 23.4754C20.4051 23.8663 20.3975 24.3324 20.142 24.6781C19.7962 25.2043 19.0144 25.3547 18.5033 25.0014C17.8117 24.5128 17.1352 24.0091 16.4437 23.513C15.8122 23.9715 15.1883 24.4226 14.5569 24.8811C14.3389 25.0465 14.0909 25.1818 13.8127 25.1968C13.3542 25.2344 12.8957 24.9863 12.6702 24.5879C12.4973 24.2873 12.4747 23.9189 12.5875 23.5957C12.8355 22.8215 13.0911 22.0472 13.3392 21.273C12.6702 20.7769 11.9936 20.2958 11.3171 19.7997C10.8887 19.4915 10.7158 18.8826 10.9187 18.4015C11.0841 17.958 11.5351 17.6498 12.0087 17.6423C12.8431 17.6348 13.6849 17.6423 14.5268 17.6423C14.7899 16.8455 15.038 16.0487 15.3011 15.2594C15.4665 14.7633 15.9926 14.4175 16.5113 14.4626C16.9774 14.4852 17.4133 14.8159 17.5637 15.2594C17.8268 16.0487 18.0823 16.8455 18.3379 17.6348C18.3379 17.6423 18.3454 17.6423 18.3454 17.6423C19.1948 17.6498 20.0518 17.6348 20.9012 17.6498C21.6003 17.6573 22.149 18.3489 22.0212 19.0179Z" fill="#F6F6F7"/>
<path d="M26.7418 2.41303C26.1179 2.39048 25.4865 2.42807 24.8626 2.41303C24.8551 3.10459 24.8852 3.80366 24.8476 4.49522C24.7348 5.67537 23.6449 6.64506 22.4647 6.62251C21.2846 6.65257 20.1871 5.67537 20.0743 4.50274C20.0367 3.81118 20.0668 3.11211 20.0593 2.42055H12.8431C12.8355 3.11211 12.8656 3.81118 12.828 4.50274C12.7153 5.68289 11.6253 6.65257 10.4452 6.63002C9.26501 6.66009 8.16754 5.69041 8.05479 4.51025C8.0172 3.8187 8.04727 3.11962 8.03975 2.42055C7.41585 2.42055 6.78443 2.42055 6.16052 2.42055H4.2813C2.34945 2.41303 0.800964 3.96152 0.800964 5.87081V8.18602C0.800964 8.66711 0.823515 9.14819 0.808481 9.62175H32.0788C32.0638 9.14819 32.0864 8.66711 32.0864 8.18602V5.87081C32.0864 3.96152 30.5379 2.40552 28.6211 2.40552H26.7418V2.41303Z" fill="#32CAFD"/>
</g>
<defs>
<clipPath id="clip0_222_37">
<rect width="31.2779" height="30" fill="white" transform="translate(0.800964)"/>
</clipPath>
</defs>
</svg>
