<svg width="46" height="45" viewBox="0 0 46 45" fill="none" xmlns="http://www.w3.org/2000/svg">
<path d="M12.4375 37.5C9.59375 37.5 7.16437 36.5156 5.14937 34.5469C3.13312 32.5781 2.125 30.1719 2.125 27.3281C2.125 24.8906 2.85937 22.7188 4.32812 20.8125C5.79687 18.9063 7.71875 17.6875 10.0937 17.1562C10.8125 14.625 12.1487 12.5 14.1025 10.7813C16.055 9.0625 18.3125 8.01562 20.875 7.64062V22.7812L19.1875 21.1406C18.8438 20.7969 18.4144 20.625 17.8994 20.625C17.3831 20.625 16.9375 20.8125 16.5625 21.1875C16.2187 21.5313 16.0469 21.9688 16.0469 22.5C16.0469 23.0312 16.2187 23.4688 16.5625 23.8125L21.4375 28.6875C21.8125 29.0625 22.25 29.25 22.75 29.25C23.25 29.25 23.6875 29.0625 24.0625 28.6875L28.9375 23.8125C29.2812 23.4688 29.4612 23.0388 29.4775 22.5225C29.4925 22.0075 29.3125 21.5625 28.9375 21.1875C28.5937 20.8438 28.1644 20.6638 27.6494 20.6475C27.1331 20.6325 26.6875 20.7969 26.3125 21.1406L24.625 22.7812V7.64062C27.8437 8.07812 30.5237 9.52313 32.665 11.9756C34.805 14.4294 35.875 17.3125 35.875 20.625C38.0312 20.875 39.8206 21.8044 41.2431 23.4131C42.6644 25.0231 43.375 26.9062 43.375 29.0625C43.375 31.4062 42.555 33.3988 40.915 35.04C39.2737 36.68 37.2812 37.5 34.9375 37.5H12.4375Z" fill="#7214FF"/>
</svg>
