<svg width="966" height="437" viewBox="0 0 966 437" fill="none" xmlns="http://www.w3.org/2000/svg">
<rect x="-24" y="-11.5" width="1015" height="449" rx="9.5" fill="#0E1330" stroke="#282D45"/>
<mask id="mask0_350_14" style="mask-type:alpha" maskUnits="userSpaceOnUse" x="-25" y="-12" width="1017" height="450">
<rect x="-24" y="-11.5" width="1015" height="449" rx="9.5" fill="#0E1330" stroke="#282D45"/>
</mask>
<g mask="url(#mask0_350_14)">
<g filter="url(#filter0_f_350_14)">
<circle cx="476.5" cy="385" r="60" fill="#5865F2"/>
</g>
<g filter="url(#filter1_f_350_14)">
<circle cx="51.5" cy="48" r="60" fill="#32CAFD"/>
</g>
<g filter="url(#filter2_f_350_14)">
<circle cx="929.5" cy="48" r="60" fill="#7214FF"/>
</g>
</g>
<path d="M966 480.741C860.872 397.575 812.308 367.642 725.255 420.761C626.428 357.425 589.071 378.725 483 444.775C429.983 393.014 409.644 371.525 385.079 403.909C324.591 333.523 291.347 310.489 240.67 371.789C235.177 378.418 227.891 383.329 219.682 385.936C211.472 388.543 202.686 388.736 194.37 386.491C118.071 365.794 44.753 452.466 0 480.741H966Z" fill="#5865F2" fill-opacity="0.2"/>
<path d="M892.946 425.473C891.437 424.154 889.097 423.475 886.305 423.475C883.935 423.512 881.584 423.893 879.324 424.606L877.815 425.096C877.86 424.002 877.732 422.908 877.437 421.854C876.607 418.536 874.419 415.822 871.136 413.975C866.23 411.185 859.325 410.732 852.721 412.731C851.431 413.112 850.167 413.592 848.948 414.163C848.382 412.329 847.597 410.569 846.608 408.923C840.684 398.97 828.383 393.127 819.176 395.917C815.251 397.085 812.308 399.762 810.912 403.381C809.1 408.056 809.893 413.824 813.138 419.253C817.93 427.358 827.137 432.938 835.59 432.975C835.665 433.465 835.741 433.955 835.854 434.408C836.099 435.31 836.439 436.182 836.873 437.009H837.741C837.231 436.138 836.85 435.198 836.609 434.219C836.469 433.675 836.367 433.12 836.307 432.561C836.299 432.467 836.254 432.381 836.182 432.318C836.115 432.256 836.024 432.221 835.93 432.221H835.666C827.439 432.221 818.459 426.755 813.78 418.876C810.685 413.635 809.893 408.094 811.591 403.645C812.912 400.252 815.704 397.764 819.402 396.633C828.27 393.956 840.194 399.649 845.967 409.3C846.986 411.028 847.786 412.878 848.344 414.804C848.389 414.905 848.469 414.985 848.571 415.03C848.669 415.068 848.774 415.068 848.873 415.03C850.186 414.392 851.548 413.863 852.948 413.447C859.363 411.524 866.004 411.939 870.758 414.616C873.853 416.387 875.928 418.951 876.72 422.042C877.03 423.209 877.132 424.422 877.022 425.624C877.026 425.752 877.079 425.874 877.173 425.963C877.226 426.007 877.29 426.033 877.354 426.04C877.422 426.046 877.49 426.033 877.551 426.001L879.551 425.322C885.06 423.663 890.003 423.927 892.456 426.039C893.776 427.132 894.305 428.678 894.041 430.487C893.776 432.297 892.531 434.86 890.607 437.009H891.588C893.361 434.898 894.531 432.674 894.795 430.6C895.059 428.527 894.456 426.717 892.946 425.473Z" fill="#808AFF"/>
<path d="M39.9811 261.482C72.9233 244.894 96.2054 257.75 96.2054 257.75C112.507 252.698 126.846 256.242 134.279 262.01C138.883 265.629 128.544 264.988 105.337 264.988H40.849C40.3586 264.988 39.8883 264.794 39.5416 264.447C39.1948 264.101 39 263.631 39 263.141C39.003 262.803 39.0953 262.471 39.2676 262.18C39.4398 261.889 39.6859 261.648 39.9811 261.482Z" fill="#5865F2" fill-opacity="0.2"/>
<path d="M307.724 273.497C316.064 269.274 321.95 272.554 321.95 272.554C326.063 271.272 329.723 272.177 331.572 273.61C332.742 274.552 330.138 274.364 324.252 274.364H307.913C307.793 274.364 307.677 274.316 307.593 274.231C307.508 274.147 307.46 274.031 307.46 273.911C307.459 273.824 307.484 273.739 307.531 273.665C307.578 273.592 307.645 273.533 307.724 273.497Z" fill="#5865F2" fill-opacity="0.2"/>
<path d="M889.885 280.909C889.832 277.635 888.644 274.482 886.523 271.987C884.402 269.492 881.482 267.809 878.255 267.226C875.033 266.643 871.705 267.196 868.844 268.791C865.984 270.385 863.762 272.923 862.565 275.97C861.513 275.741 860.437 275.628 859.358 275.631C857.192 275.624 855.053 276.093 853.09 277.005C851.128 277.918 849.389 279.25 848 280.909H889.885Z" fill="#5865F2" fill-opacity="0.2"/>
<path d="M134.413 64.0002C132.15 64.0014 129.92 64.5507 127.916 65.601C125.912 66.6517 124.192 68.1721 122.904 70.0322C117.867 67.7397 112.278 66.9401 106.799 67.7287C101.321 68.5174 96.1844 70.8608 92 74.4808H147.96C147.177 71.4848 145.423 68.8318 142.973 66.9363C140.522 65.0404 137.513 64.0082 134.413 64.0002Z" fill="#5865F2" fill-opacity="0.2"/>
<path d="M839.8 98.9045C840.747 98.9146 841.686 98.7152 842.547 98.3205C843.407 97.9254 844.169 97.3448 844.781 96.6202C845.388 95.896 845.83 95.0455 846.071 94.1302C846.313 93.2148 846.35 92.2576 846.177 91.3268C844.369 81.5837 839.434 72.6934 832.125 65.9979C824.812 59.3025 815.518 55.1657 805.646 54.2122C795.771 53.2584 785.858 55.54 777.398 60.7121C768.938 65.8841 762.391 73.6657 758.746 82.8821C755.373 82.1549 751.931 81.7881 748.483 81.7888C741.853 81.7779 735.291 83.1505 729.223 85.8185C723.155 88.4865 717.71 92.3915 713.239 97.2834C713.118 97.424 713.039 97.5959 713.012 97.7795C712.982 97.9631 713.008 98.1508 713.084 98.3209C713.159 98.4905 713.28 98.6357 713.435 98.739C713.59 98.8423 713.771 98.8996 713.956 98.9045H839.8Z" fill="#5865F2" fill-opacity="0.2"/>
<path d="M649.258 436.774H648.503C648.805 428.254 647.22 422.712 643.635 419.885C640.05 417.057 634.051 416.869 625.636 419.47C625.534 419.496 625.425 419.482 625.334 419.432C625.24 419.371 625.172 419.276 625.145 419.168C624.911 417.653 624.289 416.224 623.334 415.021C622.383 413.818 621.134 412.883 619.712 412.307C616.089 410.837 611.599 411.666 607.75 414.493C598.392 421.317 599.411 433.532 599.411 433.645C599.411 433.723 599.392 433.799 599.35 433.866C599.312 433.933 599.252 433.986 599.184 434.022C599.116 434.058 599.041 434.07 598.965 434.057C598.89 434.043 598.818 434.004 598.769 433.947C593.901 429.611 590.505 427.915 587.751 428.405C584.996 428.895 582.506 431.835 579.675 436.774H578.808C581.864 431.421 584.355 428.216 587.6 427.651C590.845 427.085 593.901 428.744 598.618 432.816C598.58 429.8 599.109 419.885 607.297 413.89C611.372 410.912 616.127 410.045 619.976 411.628C621.459 412.206 622.772 413.148 623.795 414.367C624.817 415.586 625.515 417.043 625.825 418.603C634.277 416.077 640.239 416.303 644.088 419.319C647.937 422.335 649.56 427.99 649.258 436.774Z" fill="#808AFF"/>
<path d="M178.028 150.583C176.644 149.682 175.469 148.475 174.584 147.049C173.7 145.622 173.129 144.011 172.912 142.329L172.029 136.459C172.008 136.33 171.943 136.212 171.846 136.128C171.749 136.043 171.626 135.998 171.5 136C171.373 135.998 171.25 136.043 171.153 136.128C171.056 136.212 170.991 136.33 170.971 136.459L170.089 142.329C169.854 144.005 169.275 145.61 168.392 147.034C167.51 148.458 166.343 149.669 164.972 150.583L164.266 151.042C164.182 151.08 164.11 151.144 164.063 151.227C164.015 151.309 163.994 151.405 164.002 151.5C163.994 151.596 164.015 151.692 164.063 151.774C164.11 151.856 164.182 151.921 164.266 151.959L164.972 152.417C166.339 153.36 167.5 154.589 168.381 156.027C169.262 157.465 169.843 159.078 170.089 160.764L170.971 166.542C170.991 166.671 171.056 166.788 171.153 166.873C171.25 166.957 171.373 167.002 171.5 167C171.626 167.002 171.749 166.957 171.846 166.873C171.943 166.788 172.008 166.671 172.029 166.542L172.912 160.764C173.139 159.073 173.714 157.453 174.598 156.013C175.48 154.573 176.65 153.346 178.028 152.417L178.734 151.959C178.819 151.921 178.889 151.856 178.937 151.774C178.985 151.692 179.006 151.596 178.999 151.5C179.006 151.405 178.985 151.309 178.937 151.227C178.889 151.144 178.819 151.08 178.734 151.042L178.028 150.583Z" fill="#91FFAD"/>
<path d="M757.476 178.021C756.748 177.577 756.129 176.991 755.659 176.303C755.189 175.615 754.881 174.84 754.755 174.031L754.315 171.233C754.299 171.169 754.26 171.112 754.205 171.07C754.15 171.028 754.082 171.004 754.013 171C753.941 170.999 753.873 171.022 753.815 171.065C753.76 171.107 753.724 171.167 753.711 171.233L753.271 174.031C753.139 174.842 752.826 175.617 752.353 176.305C751.877 176.993 751.253 177.578 750.522 178.021L750.137 178.254C750.096 178.281 750.063 178.316 750.041 178.356C750.016 178.396 750.003 178.441 750 178.487C750 178.534 750.014 178.579 750.038 178.62C750.06 178.661 750.096 178.695 750.137 178.72L750.522 178.954C751.256 179.402 751.88 179.992 752.353 180.684C752.826 181.376 753.139 182.155 753.271 182.969L753.711 185.767C753.724 185.833 753.76 185.893 753.815 185.936C753.873 185.978 753.941 186.001 754.013 186C754.082 185.997 754.15 185.972 754.205 185.931C754.26 185.889 754.299 185.831 754.315 185.767L754.755 182.969C754.881 182.156 755.189 181.378 755.659 180.686C756.127 179.994 756.748 179.403 757.476 178.954L757.888 178.72C757.927 178.694 757.957 178.659 757.976 178.618C757.996 178.577 758.004 178.532 757.998 178.487C758.001 178.443 757.993 178.399 757.974 178.359C757.954 178.318 757.924 178.282 757.888 178.254L757.476 178.021Z" fill="#3F99F2"/>
<path d="M824.006 355.606C823.194 355.081 822.508 354.388 821.987 353.576C821.466 352.763 821.126 351.849 820.987 350.894L820.459 347.614C820.459 347.534 820.428 347.457 820.372 347.401C820.315 347.344 820.236 347.313 820.157 347.313C820.074 347.312 819.991 347.343 819.93 347.398C819.866 347.454 819.825 347.531 819.817 347.614L819.327 350.894C819.179 351.851 818.832 352.767 818.308 353.579C817.779 354.391 817.085 355.082 816.27 355.606L815.855 355.87C815.813 355.902 815.776 355.941 815.753 355.986C815.727 356.032 815.708 356.082 815.704 356.134C815.704 356.188 815.715 356.24 815.746 356.287C815.772 356.333 815.81 356.371 815.855 356.398L816.27 356.662C817.081 357.189 817.772 357.882 818.3 358.694C818.825 359.505 819.176 360.419 819.327 361.374L819.817 364.654C819.825 364.738 819.866 364.815 819.93 364.87C819.991 364.926 820.074 364.957 820.157 364.956C820.236 364.956 820.315 364.924 820.372 364.868C820.428 364.811 820.459 364.734 820.459 364.654L820.987 361.374C821.13 360.421 821.474 359.509 821.994 358.697C822.515 357.885 823.198 357.192 824.006 356.662L824.421 356.398C824.47 356.375 824.511 356.337 824.538 356.29C824.564 356.243 824.575 356.189 824.572 356.134C824.572 356.081 824.557 356.028 824.53 355.982C824.504 355.936 824.466 355.897 824.421 355.87L824.006 355.606Z" fill="#404EED"/>
<path d="M339.949 356.964C339.642 356.769 339.382 356.509 339.186 356.203C338.991 355.897 338.864 355.552 338.817 355.192L338.628 353.985C338.628 353.956 338.616 353.927 338.595 353.905C338.574 353.884 338.545 353.872 338.515 353.872C338.485 353.872 338.456 353.884 338.435 353.905C338.414 353.927 338.402 353.956 338.402 353.985L338.213 355.192C338.165 355.552 338.039 355.897 337.843 356.203C337.648 356.509 337.388 356.769 337.081 356.964L336.892 357.077C336.855 357.077 336.855 357.152 336.855 357.19C336.853 357.21 336.855 357.231 336.862 357.25C336.868 357.27 336.878 357.288 336.892 357.303L337.081 357.378C337.38 357.582 337.634 357.844 337.828 358.149C338.023 358.453 338.154 358.794 338.213 359.15L338.402 360.394C338.402 360.425 338.414 360.453 338.435 360.474C338.456 360.495 338.485 360.507 338.515 360.507C338.545 360.507 338.574 360.495 338.595 360.474C338.616 360.453 338.628 360.425 338.628 360.394L338.817 359.15C338.876 358.794 339.007 358.453 339.201 358.149C339.396 357.844 339.65 357.582 339.949 357.378L340.138 357.303C340.151 357.288 340.161 357.27 340.168 357.25C340.175 357.231 340.177 357.21 340.175 357.19C340.175 357.152 340.175 357.077 340.138 357.077L339.949 356.964Z" fill="#FF78B9"/>
<path d="M355.873 405.332C355.716 405.239 355.582 405.113 355.477 404.964C355.373 404.814 355.302 404.644 355.269 404.465L355.194 403.824H355.08L354.967 404.465C354.941 404.642 354.876 404.811 354.779 404.961C354.681 405.11 354.552 405.237 354.401 405.332L354.326 405.408C354.316 405.408 354.306 405.412 354.299 405.419C354.292 405.426 354.288 405.436 354.288 405.446C354.288 405.456 354.292 405.465 354.299 405.472C354.306 405.479 354.316 405.483 354.326 405.483L354.401 405.559C354.552 405.654 354.681 405.781 354.779 405.931C354.876 406.08 354.941 406.249 354.967 406.426L355.08 407.067H355.194L355.269 406.426C355.302 406.247 355.373 406.077 355.477 405.927C355.582 405.778 355.716 405.652 355.873 405.559L355.948 405.483L355.873 405.332Z" fill="#FFC619"/>
<path d="M515.376 401.789C515.037 401.56 514.75 401.265 514.531 400.921C514.308 400.578 514.161 400.193 514.093 399.791L513.904 398.433C513.904 398.358 513.829 398.32 513.754 398.32C513.738 398.32 513.723 398.323 513.708 398.329C513.697 398.335 513.686 398.343 513.674 398.353C513.663 398.364 513.655 398.376 513.648 398.39C513.644 398.404 513.64 398.419 513.64 398.433L513.414 399.791C513.361 400.194 513.225 400.58 513.01 400.925C512.795 401.27 512.508 401.565 512.169 401.789L511.98 401.902C511.942 401.902 511.905 401.939 511.905 402.015C511.905 402.053 511.942 402.09 511.98 402.128L512.169 402.241C512.501 402.463 512.784 402.752 512.999 403.09C513.214 403.427 513.354 403.806 513.414 404.201L513.64 405.559C513.64 405.589 513.652 405.617 513.674 405.639C513.693 405.66 513.723 405.672 513.754 405.672C513.829 405.672 513.904 405.634 513.904 405.559L514.093 404.201C514.165 403.806 514.316 403.429 514.535 403.092C514.757 402.755 515.04 402.466 515.376 402.241L515.565 402.128C515.58 402.113 515.587 402.095 515.595 402.075C515.603 402.056 515.603 402.035 515.603 402.015C515.603 401.939 515.603 401.902 515.565 401.902L515.376 401.789Z" fill="#91FFAD"/>
<path d="M124.561 392.891C124.198 392.646 123.89 392.329 123.657 391.959C123.423 391.589 123.268 391.175 123.203 390.743L122.976 389.235C122.939 389.159 122.901 389.084 122.825 389.084C122.785 389.084 122.747 389.1 122.719 389.128C122.69 389.156 122.674 389.195 122.674 389.235L122.448 390.743C122.376 391.178 122.214 391.593 121.974 391.962C121.734 392.332 121.42 392.649 121.052 392.891L120.825 393.005C120.788 393.042 120.788 393.08 120.788 393.155C120.788 393.193 120.788 393.268 120.825 393.268L121.052 393.419C121.423 393.659 121.739 393.974 121.98 394.344C122.22 394.715 122.38 395.132 122.448 395.568L122.674 397.076C122.674 397.151 122.75 397.189 122.825 397.189C122.901 397.189 122.939 397.151 122.976 397.076L123.203 395.568C123.263 395.134 123.416 394.718 123.651 394.348C123.885 393.977 124.195 393.661 124.561 393.419L124.788 393.268C124.825 393.268 124.863 393.193 124.863 393.155C124.863 393.126 124.856 393.097 124.843 393.071C124.83 393.045 124.811 393.022 124.788 393.005L124.561 392.891Z" fill="#FF78B9"/>
<path d="M192.773 294.808C192.41 294.563 192.103 294.245 191.869 293.876C191.635 293.506 191.48 293.091 191.415 292.659L191.189 291.151C191.151 291.076 191.113 291 191.038 291C190.998 291 190.959 291.016 190.931 291.044C190.903 291.073 190.887 291.111 190.887 291.151L190.66 292.659C190.588 293.094 190.427 293.509 190.186 293.879C189.946 294.249 189.632 294.565 189.264 294.808L189.038 294.921C189 294.959 189 294.996 189 295.072C189 295.11 189 295.185 189.038 295.185L189.264 295.336C189.635 295.575 189.952 295.891 190.192 296.261C190.433 296.631 190.592 297.048 190.66 297.485L190.887 298.993C190.887 299.068 190.962 299.106 191.038 299.106C191.113 299.106 191.151 299.068 191.189 298.993L191.415 297.485C191.476 297.051 191.629 296.635 191.863 296.264C192.097 295.894 192.407 295.577 192.773 295.336L193 295.185C193.038 295.185 193.075 295.11 193.075 295.072C193.075 295.043 193.069 295.014 193.055 294.988C193.042 294.961 193.023 294.939 193 294.921L192.773 294.808Z" fill="#B756FE"/>
<defs>
<filter id="filter0_f_350_14" x="216.5" y="125" width="520" height="520" filterUnits="userSpaceOnUse" color-interpolation-filters="sRGB">
<feFlood flood-opacity="0" result="BackgroundImageFix"/>
<feBlend mode="normal" in="SourceGraphic" in2="BackgroundImageFix" result="shape"/>
<feGaussianBlur stdDeviation="100" result="effect1_foregroundBlur_350_14"/>
</filter>
<filter id="filter1_f_350_14" x="-258.5" y="-262" width="620" height="620" filterUnits="userSpaceOnUse" color-interpolation-filters="sRGB">
<feFlood flood-opacity="0" result="BackgroundImageFix"/>
<feBlend mode="normal" in="SourceGraphic" in2="BackgroundImageFix" result="shape"/>
<feGaussianBlur stdDeviation="125" result="effect1_foregroundBlur_350_14"/>
</filter>
<filter id="filter2_f_350_14" x="619.5" y="-262" width="620" height="620" filterUnits="userSpaceOnUse" color-interpolation-filters="sRGB">
<feFlood flood-opacity="0" result="BackgroundImageFix"/>
<feBlend mode="normal" in="SourceGraphic" in2="BackgroundImageFix" result="shape"/>
<feGaussianBlur stdDeviation="125" result="effect1_foregroundBlur_350_14"/>
</filter>
</defs>
</svg>
